<svg xmlns="http://www.w3.org/2000/svg" viewBox="0 0 64 64">
  <rect width="64" height="64" rx="14" fill="#09090b"/>
  <path d="M14 46V18h11.4c4.6 0 8.3 1.3 11 3.8 2.7 2.5 4.1 6 4.1 10.2s-1.4 7.7-4.1 10.2c-2.7 2.5-6.4 3.8-11 3.8H14Zm7.4-6.3h3.6c2.4 0 4.3-.7 5.7-2.1 1.4-1.4 2.1-3.3 2.1-5.6s-.7-4.2-2.1-5.6c-1.4-1.4-3.3-2.1-5.7-2.1h-3.6v15.4Z" fill="#f7f7f2"/>
  <path d="M43.1 45.6c-2.2 0-4.1-.4-5.8-1.3-1.7-.9-3.1-2.2-4.1-3.8l4.6-3.4c.8 1.1 1.7 1.9 2.6 2.5 1 .5 2 .8 3.1.8 1 0 1.8-.2 2.4-.6.6-.4.9-.9.9-1.6 0-.6-.3-1.1-.8-1.5-.5-.4-1.6-.8-3.2-1.2-2.9-.7-5.1-1.7-6.5-3-1.4-1.3-2.1-3-2.1-5.1 0-2.4.9-4.4 2.7-5.9 1.8-1.5 4.2-2.3 7.2-2.3 2 0 3.8.4 5.3 1.2 1.6.8 2.8 1.9 3.7 3.3l-4.4 3.3c-1.2-1.6-2.8-2.4-4.7-2.4-.9 0-1.6.2-2.1.6-.5.4-.8.9-.8 1.5 0 .6.3 1 .9 1.4.6.4 1.8.8 3.7 1.2 2.7.7 4.8 1.7 6.1 3 1.3 1.3 2 3 2 5 0 2.5-1 4.5-2.9 6-1.9 1.5-4.5 2.3-7.8 2.3Z" fill="#f7f7f2"/>
</svg>
